<!--?xml version="1.0" standalone="no"?-->

<svg version="1.0" xmlns="http://www.w3.org/2000/svg" width="300.000000pt" height="300.000000pt" viewBox="0 0 300.000000 300.000000" preserveAspectRatio="xMidYMid meet">
<g transform="translate(0.000000,300.000000) scale(0.100000,-0.100000)" fill="#0B0B0B" stroke="none">
<path class="node" id="node1" d="M1245 2775 c-616 -129 -1044 -651 -1045 -1275 0 -720 579 -1300 1300
-1300 721 0 1300 580 1300 1300 -1 724 -581 1302 -1305 1299 -106 0 -167 -6
-250 -24z m-205 -83 c0 -23 -40 -56 -125 -101 -113 -61 -207 -131 -293 -216
-57 -57 -112 -88 -112 -63 0 15 109 125 185 188 80 65 136 101 250 159 83 42
95 46 95 33z m1022 -37 c116 -59 158 -86 243 -155 77 -63 185 -173 185 -188 0
-27 -54 11 -135 93 -106 109 -187 164 -313 216 -47 20 -82 50 -82 71 0 13 8
10 102 -37z m-822 -82 c63 -23 136 -60 198 -100 l52 -35 0 -214 c0 -176 -2
-214 -14 -214 -25 0 -185 -89 -259 -143 -40 -30 -103 -86 -140 -126 l-68 -73
-162 52 c-245 79 -229 71 -251 126 -16 41 -20 82 -23 249 l-4 200 43 45 c101
105 206 184 332 249 l76 39 87 -19 c49 -11 108 -27 133 -36z m791 34 c145 -60
279 -157 359 -262 l45 -58 0 -181 c-1 -168 -3 -186 -25 -245 -29 -73 -6 -60
-257 -141 l-163 -52 -57 59 c-110 113 -242 209 -360 260 l-63 27 0 211 0 210
33 22 c80 54 187 98 382 156 28 8 50 16 51 16 0 1 25 -9 55 -22z m-1389 -836
c13 -5 82 -28 153 -51 72 -22 149 -48 171 -56 l42 -15 17 -97 c23 -124 72
-276 124 -381 l41 -83 -22 -32 c-95 -135 -213 -293 -226 -303 -35 -29 -193 -9
-319 39 -114 44 -175 81 -194 118 -50 97 -87 198 -118 325 -37 154 -38 147 15
237 60 102 131 187 213 255 71 58 69 57 103 44z m1798 -26 c87 -64 192 -185
240 -278 l44 -86 -11 -88 c-18 -134 -80 -304 -145 -396 -24 -33 -128 -88 -223
-116 -83 -24 -258 -46 -279 -34 -12 7 -220 282 -249 330 -4 6 7 36 24 65 68
114 121 269 140 408 7 52 18 98 23 102 6 4 83 30 171 58 88 28 169 55 180 60
31 13 34 12 85 -25z m-2193 -337 c12 -13 24 -44 27 -73 15 -106 65 -268 122
-393 32 -69 44 -132 26 -132 -10 0 -24 23 -76 127 -53 107 -90 220 -110 333
-30 173 -29 181 11 138z m2538 -6 c-2 -9 -9 -55 -16 -102 -15 -112 -60 -254
-115 -363 -69 -137 -78 -148 -86 -104 -3 15 7 43 24 73 76 128 125 270 134
392 5 60 13 90 26 108 21 26 38 25 33 -4z m-1421 -343 c109 -10 163 -10 272 0
75 7 142 15 149 17 6 3 24 -14 40 -38 15 -23 32 -47 36 -52 87 -109 179 -245
179 -264 0 -33 -77 -177 -140 -261 -100 -135 -125 -158 -182 -170 -118 -26
-352 -23 -466 6 -49 12 -268 327 -287 412 -6 26 0 40 37 92 40 55 117 160 135
184 5 6 21 29 37 53 16 24 35 41 41 38 7 -2 74 -10 149 -17z m-69 -784 c102
-18 307 -18 408 0 59 10 85 11 103 3 13 -6 24 -14 24 -18 0 -4 -48 -15 -107
-26 -138 -24 -324 -24 -448 0 -108 22 -115 25 -84 42 13 7 24 13 24 13 0 1 36
-6 80 -14z"></path>
</g>
<g transform="translate(0.000000,300.000000) scale(0.100000,-0.100000)" fill="#A1A1A1" stroke="none">

<path class="node" id="node3" d="M945 2659 c-114 -58 -170 -94 -250 -159 -76 -63 -185 -173 -185 -188
0 -25 55 6 112 63 86 85 180 155 293 216 85 45 125 78 125 101 0 13 -12 9 -95
-33z"></path>
<path class="node" id="node4" d="M1960 2692 c0 -21 35 -51 82 -71 126 -52 207 -107 313 -216 81 -82
135 -120 135 -93 0 27 -201 211 -297 271 -45 28 -217 117 -227 117 -3 0 -6 -3
-6 -8z"></path>
<path class="node" id="node5" d="M944 2589 c-126 -65 -231 -144 -332 -249 l-43 -45 4 -200 c3 -167 7
-208 23 -249 22 -55 6 -47 251 -126 l162 -52 68 73 c37 40 100 96 140 126 74
54 234 143 259 143 12 0 14 38 14 214 l0 214 -52 35 c-107 70 -195 106 -331
136 l-87 19 -76 -39z"></path>
<path class="node" id="node6" d="M1925 2613 c-195 -58 -302 -102 -382 -156 l-33 -22 0 -210 0 -211 63
-27 c118 -51 250 -147 360 -260 l57 -59 163 52 c251 81 228 68 257 141 22 59
24 77 25 245 l0 181 -45 58 c-54 71 -163 163 -245 207 -50 28 -166 80 -169 77
-1 0 -23 -8 -51 -16z"></path>
<path class="node" id="node7" d="M539 1727 c-82 -68 -153 -153 -213 -255 -53 -90 -52 -83 -15 -237 31
-127 68 -228 118 -325 19 -37 80 -74 194 -118 126 -48 284 -68 319 -39 13 10
131 168 226 303 l22 32 -41 83 c-52 105 -101 257 -124 381 l-17 97 -42 15
c-22 8 -99 34 -171 56 -71 23 -140 46 -153 51 -34 13 -32 14 -103 -44z"></path>
<path class="node" id="node8" d="M2355 1770 c-11 -5 -92 -32 -180 -60 -88 -28 -165 -54 -171 -58 -5
-4 -16 -50 -23 -102 -19 -139 -72 -294 -140 -408 -17 -29 -28 -59 -24 -65 29
-48 237 -323 249 -330 21 -12 196 10 279 34 95 28 199 83 223 116 65 92 127
262 145 396 l11 88 -44 86 c-48 93 -153 214 -240 278 -51 37 -54 38 -85 25z"></path>
<path class="node" id="node9" d="M216 1393 c28 -197 63 -320 130 -456 52 -104 66 -127 76 -127 18 0 6
63 -26 132 -57 125 -107 287 -122 393 -6 45 -35 95 -55 95 -4 0 -5 -17 -3 -37z"></path>
<path class="node" id="node10" d="M2752 1406 c-13 -18 -21 -48 -26 -108 -9 -122 -58 -264 -134 -392
-17 -30 -27 -58 -24 -73 8 -44 17 -33 86 104 55 109 100 251 115 363 7 47 14
93 16 102 5 29 -12 30 -33 4z"></path>
<path class="node" id="node11" d="M1174 1038 c-16 -24 -32 -47 -37 -53 -18 -24 -95 -129 -135 -184 -37
-52 -43 -66 -37 -92 19 -85 238 -400 287 -412 114 -29 348 -32 466 -6 57 12
82 35 182 170 63 84 140 228 140 261 0 19 -92 155 -179 264 -4 5 -21 29 -36
52 -16 24 -34 41 -40 38 -7 -2 -74 -10 -149 -17 -109 -10 -163 -10 -272 0 -75
7 -142 15 -149 17 -6 3 -25 -14 -41 -38z"></path>
<path class="node" id="node12" d="M1191 276 c-31 -17 -24 -20 84 -42 124 -24 310 -24 448 0 59 11 107
22 107 26 0 4 -11 12 -24 18 -18 8 -44 7 -103 -3 -101 -18 -306 -18 -408 0
-44 8 -80 15 -80 14 0 0 -11 -6 -24 -13z"></path>
</g>
</svg>